<svg width="323" height="479" viewBox="0 0 323 479" fill="none" xmlns="http://www.w3.org/2000/svg">
<g opacity="0.5" filter="url(#filter0_d)">
<path d="M308.692 301.014C303.635 300.865 299.277 304.803 298.039 310.216C290.211 310.833 281.267 311.043 271.448 310.415C265.988 310.056 260.796 309.477 255.94 308.761C255.967 307.813 255.981 306.856 255.981 305.9C255.981 301.244 255.645 296.669 255.026 292.192C257.501 290.267 260.594 288.244 264.347 286.51C270.843 283.479 276.923 282.403 281.617 282.093C283.917 287.406 289.203 290.497 294.26 289.151C299.963 287.636 303.231 281.085 301.536 274.516C299.855 267.946 293.883 263.839 288.18 265.354C282.989 266.74 279.814 272.303 280.568 278.255C276.465 280.627 270.359 283.199 262.8 283.388C259.074 283.488 255.806 282.98 253.156 282.323C251.475 275.373 249.067 268.714 245.987 262.434C249.242 259.443 253.089 256.272 257.595 253.211C264.118 248.766 270.413 245.586 275.941 243.302C279.545 247.59 285.289 249.015 289.727 246.404C294.825 243.411 296.25 236.204 292.928 230.322C289.606 224.441 282.76 222.108 277.662 225.108C273.237 227.71 271.569 233.492 273.399 238.816C268.651 242.564 262.813 246.522 255.806 250.052C251.045 252.464 246.485 254.298 242.356 255.694C238.98 249.942 235.039 244.578 230.601 239.683C232.309 233.383 235.187 226.025 240.096 218.648C244.71 211.75 249.821 206.715 254.165 203.175C258.953 206.197 264.979 205.728 268.409 201.75C272.309 197.244 271.422 189.957 266.405 185.472C261.415 180.975 254.205 180.983 250.318 185.491C246.889 189.469 247.158 195.6 250.722 200.075C247.911 204.801 243.661 210.663 237.42 216.246C230.533 222.407 223.62 226.095 218.348 228.289C212.349 223.613 205.812 219.644 198.832 216.505C199.84 213.643 201.185 210.763 202.947 207.932C204.359 205.688 205.879 203.714 207.413 201.99C212.725 204.193 218.684 202.608 221.36 197.992C224.373 192.838 222.167 185.839 216.438 182.371C210.708 178.901 203.633 180.266 200.62 185.43C197.984 189.968 199.37 195.928 203.633 199.657C202.746 202.05 201.669 204.533 200.378 207.063C198.912 209.975 197.325 212.657 195.644 215.139C194.931 214.849 194.232 214.571 193.519 214.312C185.207 211.141 176.343 209.138 167.103 208.46C165.583 204.293 164.265 199.674 163.337 194.602C161.454 184.253 161.803 175.245 162.678 168.48C168.112 167.419 172.173 163.074 172.173 157.866C172.173 151.865 166.78 147 160.122 147C153.451 147 148.044 151.865 148.044 157.866C148.044 163.163 152.254 167.569 157.822 168.531C159.033 175.199 159.826 184.531 157.97 195.35C157.136 200.112 155.912 204.452 154.487 208.38C145.623 208.889 137.109 210.631 129.066 213.439C127.95 211.626 126.941 209.724 126.04 207.48C124.264 203.036 123.498 198.871 123.188 195.404C128.393 192.642 131.07 186.848 129.241 181.722C127.223 176.086 120.512 173.403 114.244 175.733C107.99 178.064 104.546 184.521 106.577 190.16C108.326 195.023 113.558 197.678 118.978 196.819C120.565 200.138 122.085 203.964 123.269 208.31C123.915 210.612 124.385 212.863 124.749 215.064C117.445 218.013 110.599 221.858 104.304 226.46C100.996 224.019 97.6062 221.185 94.2571 217.865C86.5503 210.22 81.4122 202.379 78.0363 196.099C81.7754 191.883 82.4345 185.846 79.3006 181.687C75.7095 176.927 68.5137 176.425 63.2278 180.564C57.9554 184.704 56.5835 191.916 60.1612 196.674C63.3489 200.878 69.3207 201.753 74.3241 199.044C79.193 203.495 85.5281 210.515 90.4239 220.607C92.67 225.222 94.2302 229.71 95.3332 233.895C94.3244 234.841 93.3021 235.817 92.3203 236.812C87.411 241.834 83.0128 247.394 79.2468 253.41C77.0275 252.759 74.7276 251.971 72.3738 251.006C64.7207 247.865 58.7893 243.861 54.4852 240.372C56.3144 234.947 54.5256 229.093 49.9795 226.555C44.8281 223.669 38.0492 226.158 34.8481 232.115C31.6335 238.068 33.2207 245.235 38.399 248.119C42.9317 250.655 48.7152 249.034 52.2256 244.56C57.4443 246.4 63.9541 249.351 70.6657 254.197C72.6697 255.644 74.499 257.133 76.2071 258.63C70.8943 268.387 67.1821 279.172 65.4201 290.621C60.8336 291.02 55.8841 291.211 50.5713 291.044C42.9855 290.807 36.1393 289.901 30.154 288.722C30.0195 282.734 26.0921 277.723 20.7659 277.152C14.9016 276.525 9.58887 281.492 8.88947 288.246C8.20351 295 12.3865 300.983 18.2373 301.608C23.4559 302.166 28.2172 298.289 29.7102 292.67C35.8434 292.796 42.7298 293.355 50.1946 294.665C55.3729 295.571 60.1477 296.726 64.5728 298.011C64.3576 300.611 64.2635 303.24 64.2635 305.9C64.2635 312.215 64.8418 318.39 65.9717 324.378C60.8875 327.804 53.8934 331.689 44.976 334.417C37.1615 336.809 30.1272 337.623 24.5185 337.798C22.501 332.474 17.4975 329.153 12.4268 330.149C6.65673 331.287 2.98488 337.613 4.24919 344.281C5.5135 350.95 11.2298 355.432 16.9998 354.295C22.0033 353.31 25.4062 348.448 25.4197 342.842C31.1629 340.939 37.9416 339.153 45.6485 337.99C54.4987 336.655 62.4477 336.463 69.1458 336.759C71.8224 345.023 75.5885 352.784 80.2287 359.889C78.0364 361.656 75.6019 363.4 72.8446 365.029C67.5856 368.152 62.5418 370.095 58.1571 371.35C55.1981 366.526 49.6567 364.262 44.8684 366.233C39.4211 368.487 37.0136 375.415 39.5153 381.705C41.089 385.653 44.2228 388.425 47.6929 389.372C49.7374 389.94 51.9029 389.871 53.9338 389.034C54.5256 388.784 55.1039 388.474 55.6285 388.106C59.6097 385.416 61.3044 379.84 59.6232 374.52C63.7658 372.341 68.6079 370.184 74.1762 368.404C77.7674 367.264 81.1837 366.43 84.3983 365.811C87.3304 369.677 90.5584 373.304 94.0151 376.651C94.3379 376.971 94.6741 377.29 94.9969 377.587C92.6566 382.912 89.1326 389.382 83.8198 395.941C78.6146 402.362 73.2077 407.036 68.6481 410.339C64.0886 407.036 58.1033 407.108 54.4314 410.806C50.235 415.023 50.6385 422.361 55.3326 427.196C59.9997 432.019 67.209 432.52 71.392 428.302C75.037 424.642 75.2118 418.623 72.1182 413.947C75.696 409.19 80.3632 403.827 86.3216 398.533C92.7373 392.851 99.0589 388.644 104.573 385.544C111.863 390.827 119.92 395.104 128.515 398.165C128.178 401.464 127.6 405.023 126.645 408.762C124.574 416.908 121.48 423.437 118.669 428.243C113.141 427.115 107.68 429.688 105.811 434.613C103.699 440.206 107.021 446.725 113.235 449.178C119.436 451.63 126.188 449.078 128.326 443.475C130.169 438.61 127.909 433.048 123.188 430.076C124.52 424.284 126.631 417.434 129.967 410.077C131.608 406.49 133.343 403.219 135.118 400.239C141.749 402.063 148.649 403.18 155.778 403.489C156.934 409.172 157.876 415.531 158.333 422.48C159.019 432.817 158.468 441.97 157.499 449.526C152.093 450.594 148.044 454.939 148.044 460.135C148.044 466.136 153.438 471 160.122 471C166.78 471 172.173 466.136 172.173 460.135C172.173 454.96 168.152 450.623 162.772 449.536C161.871 441.81 161.386 432.679 161.898 422.48C162.247 415.6 163.014 409.25 163.982 403.508C171.434 403.219 178.656 402.054 185.556 400.108C186.148 401.145 186.726 402.222 187.291 403.33C191.044 410.636 193.061 417.486 194.151 422.968C189.349 425.81 186.901 431.333 188.636 436.258C190.6 441.91 197.298 444.642 203.579 442.368C209.847 440.085 213.344 433.655 211.367 428.003C209.618 422.989 204.144 420.276 198.549 421.313C195.98 416.817 192.994 410.028 191.958 401.335C191.824 400.258 191.73 399.202 191.676 398.165C199.356 395.453 206.592 391.755 213.25 387.228C217.541 390.787 222.06 395.034 226.552 400.078C233.465 407.834 238.496 415.482 242.127 421.981C238.442 426.188 237.81 432.18 240.917 436.317C244.521 441.072 251.704 441.571 256.99 437.433C262.262 433.297 263.634 426.089 260.056 421.324C256.949 417.216 251.152 416.279 246.23 418.782C240.93 413.308 235.053 406.38 229.39 397.866C225.732 392.362 222.705 387.02 220.217 382.004C222.894 379.801 225.449 377.459 227.897 374.976C231.878 370.909 235.523 366.492 238.751 361.767C244.71 363.463 251.583 365.945 258.873 369.672C265.907 373.253 271.771 377.19 276.492 380.858C274.703 386.182 276.398 391.944 280.837 394.516C285.948 397.497 292.767 395.124 296.076 389.232C299.384 383.331 297.905 376.143 292.794 373.161C288.328 370.561 282.531 372.047 278.954 376.413C273.681 374.367 267.279 371.268 260.648 366.513C253.762 361.578 248.556 356.284 244.79 351.718C247.333 346.854 249.484 341.739 251.206 336.415C254.057 336.515 257.084 336.774 260.204 337.253C268.261 338.489 274.972 340.811 280.137 343.124C279.693 348.807 282.841 354.011 287.831 355.317C293.534 356.813 299.505 352.695 301.173 346.116C302.827 339.537 299.559 332.996 293.843 331.501C288.839 330.184 283.607 333.216 281.281 338.448C275.806 337.99 268.772 336.763 261.092 333.734C258.187 332.577 255.497 331.291 253.049 329.945C254.273 325.011 255.133 319.935 255.577 314.732C260.54 314.323 265.813 314.064 271.368 314.053C281.159 314.024 290.063 314.741 297.878 315.798C298.819 321.272 302.949 325.439 307.992 325.6C313.883 325.768 318.82 320.404 318.994 313.616C319.183 306.828 314.569 301.184 308.692 301.014Z" fill="#FF383D"/>
</g>
<g opacity="0.5" filter="url(#filter1_d)">
<path d="M129.811 62.2713C127.756 62.2108 125.985 63.8032 125.483 65.9919C122.302 66.2413 118.667 66.3261 114.677 66.0723C112.458 65.927 110.349 65.6932 108.376 65.4033C108.387 65.0203 108.392 64.6334 108.392 64.2466C108.392 62.3644 108.256 60.5143 108.004 58.7041C109.01 57.9259 110.267 57.1079 111.792 56.4068C114.432 55.1813 116.902 54.7462 118.809 54.621C119.744 56.7692 121.892 58.0191 123.947 57.4748C126.264 56.8624 127.592 54.2136 126.904 51.5577C126.22 48.9012 123.794 47.2406 121.476 47.8531C119.367 48.4134 118.077 50.6626 118.383 53.0691C116.716 54.0285 114.235 55.0683 111.163 55.1448C109.649 55.1852 108.321 54.9796 107.244 54.7141C106.561 51.904 105.583 49.2115 104.331 46.6725C105.654 45.4632 107.217 44.1812 109.048 42.9435C111.699 41.1461 114.257 39.8603 116.503 38.9369C117.968 40.6706 120.301 41.247 122.105 40.1912C124.176 38.9813 124.756 36.067 123.406 33.6888C122.056 31.3111 119.274 30.3677 117.202 31.5809C115.404 32.6329 114.727 34.9707 115.47 37.1234C113.541 38.6387 111.169 40.2388 108.321 41.666C106.386 42.6415 104.534 43.3831 102.856 43.9473C101.484 41.6217 99.8826 39.4529 98.079 37.4737C98.7731 34.9264 99.9427 31.9517 101.938 28.9688C103.812 26.1798 105.889 24.1441 107.654 22.713C109.6 23.9346 112.049 23.745 113.442 22.1366C115.027 20.3148 114.667 17.3684 112.628 15.5549C110.6 13.737 107.671 13.7403 106.091 15.5627C104.698 17.1711 104.807 19.6502 106.255 21.4593C105.113 23.3703 103.386 25.7403 100.85 27.9978C98.0516 30.4886 95.2424 31.98 93.0999 32.8668C90.6624 30.9763 88.0062 29.3717 85.1696 28.1025C85.5795 26.9452 86.1261 25.7808 86.842 24.6363C87.4159 23.7289 88.0335 22.9309 88.6566 22.2336C90.8154 23.1243 93.2366 22.4836 94.3242 20.6174C95.5485 18.5335 94.6521 15.7035 92.3238 14.3012C89.9956 12.8984 87.1208 13.4504 85.8965 15.5383C84.8253 17.3728 85.3883 19.7827 87.1208 21.2903C86.7601 22.258 86.3228 23.2617 85.7982 24.2849C85.2024 25.4621 84.5575 26.5468 83.8743 27.5499C83.5846 27.433 83.3005 27.3205 83.0108 27.2157C79.6332 25.9337 76.0314 25.124 72.2767 24.8496C71.6591 23.1647 71.1235 21.2975 70.7463 19.2468C69.9812 15.0622 70.1233 11.4203 70.4786 8.68505C72.6866 8.25607 74.3371 6.49912 74.3371 4.39354C74.3371 1.96705 72.1455 -1.41278e-06 69.4401 -1.40358e-06C66.7293 -1.39437e-06 64.5321 1.96705 64.5321 4.39354C64.5321 6.53515 66.2428 8.31649 68.5055 8.70557C68.9974 11.4014 69.3199 15.1747 68.5657 19.5488C68.2268 21.4743 67.7294 23.229 67.1501 24.8175C63.5484 25.0231 60.0888 25.7276 56.8204 26.8627C56.3668 26.1299 55.9569 25.3607 55.5907 24.4534C54.8693 22.6565 54.5577 20.9727 54.432 19.571C56.5472 18.4542 57.6348 16.1114 56.8915 14.0391C56.0717 11.76 53.3444 10.6754 50.7975 11.6176C48.2561 12.5598 46.857 15.1708 47.6822 17.4504C48.3927 19.4169 50.5188 20.4905 52.7214 20.143C53.3663 21.4848 53.9839 23.0317 54.4649 24.7892C54.7272 25.7198 54.9185 26.6299 55.0661 27.52C52.0983 28.7122 49.3164 30.2668 46.7586 32.1275C45.4141 31.1403 44.0368 29.9947 42.6759 28.6523C39.5442 25.5613 37.4564 22.391 36.0846 19.852C37.604 18.1471 37.8718 15.7062 36.5984 14.0247C35.1391 12.1003 32.2151 11.8974 30.0672 13.5707C27.9247 15.2445 27.3673 18.1604 28.8211 20.0842C30.1164 21.7841 32.543 22.1377 34.5761 21.0425C36.5546 22.8422 39.1289 25.6805 41.1183 29.7608C42.031 31.627 42.665 33.4416 43.1132 35.1337C42.7032 35.5161 42.2879 35.9107 41.8889 36.3131C39.894 38.3433 38.1068 40.5913 36.5765 43.0239C35.6747 42.7606 34.7401 42.442 33.7837 42.0518C30.6738 40.782 28.2636 39.1631 26.5146 37.7525C27.2579 35.5588 26.531 33.1921 24.6837 32.1657C22.5905 30.999 19.8359 32.0055 18.5351 34.4137C17.2289 36.8208 17.8738 39.7184 19.978 40.8846C21.8199 41.9099 24.17 41.2548 25.5965 39.4457C27.717 40.1895 30.3623 41.3828 33.0895 43.3421C33.9039 43.9273 34.6472 44.5293 35.3413 45.1345C33.1825 49.0796 31.674 53.4399 30.958 58.0689C29.0943 58.2302 27.0831 58.3078 24.9242 58.2402C21.8417 58.1443 19.0598 57.778 16.6277 57.3013C16.573 54.8804 14.9771 52.854 12.8128 52.6235C10.4299 52.3696 8.27103 54.3782 7.98683 57.109C7.70809 59.8397 9.40784 62.2585 11.7853 62.5113C13.9059 62.7368 15.8406 61.1694 16.4473 58.8976C18.9395 58.9485 21.7378 59.1747 24.7711 59.704C26.8753 60.0703 28.8156 60.5376 30.6137 61.0569C30.5263 62.1083 30.488 63.1713 30.488 64.2466C30.488 66.8 30.723 69.2969 31.1821 71.7178C29.1162 73.1029 26.2741 74.6736 22.6506 75.7766C19.4752 76.7437 16.6168 77.073 14.3377 77.1439C13.5179 74.9912 11.4847 73.6482 9.42423 74.0512C7.07956 74.5112 5.58751 77.0691 6.10126 79.7649C6.61501 82.4613 8.9378 84.2737 11.2825 83.8137C13.3156 83.4157 14.6984 81.4498 14.7039 79.183C17.0376 78.4137 19.7921 77.6915 22.9238 77.2215C26.5201 76.6817 29.7502 76.6041 32.472 76.7238C33.5596 80.0648 35.0899 83.2029 36.9755 86.0756C36.0846 86.79 35.0954 87.495 33.9749 88.154C31.838 89.4166 29.7884 90.2019 28.0067 90.7096C26.8043 88.7592 24.5525 87.8436 22.6069 88.6406C20.3934 89.5518 19.4151 92.353 20.4316 94.8964C21.0711 96.4926 22.3445 97.6133 23.7546 97.9963C24.5853 98.2258 25.4653 98.198 26.2906 97.8594C26.5311 97.7585 26.766 97.6333 26.9792 97.4842C28.597 96.3967 29.2856 94.1421 28.6024 91.991C30.2858 91.1103 32.2534 90.238 34.516 89.5186C35.9753 89.0574 37.3635 88.7204 38.6698 88.4699C39.8612 90.0329 41.1729 91.4994 42.5776 92.8529C42.7087 92.982 42.8454 93.1112 42.9765 93.2314C42.0255 95.3841 40.5936 98.0002 38.4347 100.652C36.3196 103.248 34.1225 105.138 32.2697 106.473C30.4169 105.138 27.9848 105.167 26.4928 106.662C24.7875 108.367 24.9515 111.334 26.8589 113.289C28.7555 115.239 31.6849 115.442 33.3847 113.736C34.8658 112.256 34.9368 109.823 33.6798 107.932C35.1336 106.009 37.0301 103.841 39.4513 101.7C42.0583 99.403 44.6271 97.702 46.8679 96.4483C49.8302 98.5844 53.104 100.314 56.5964 101.551C56.4597 102.885 56.2247 104.324 55.8367 105.836C54.995 109.129 53.738 111.769 52.5957 113.713C50.3494 113.256 48.1304 114.297 47.3707 116.288C46.5126 118.549 47.8626 121.185 50.3876 122.177C52.9072 123.169 55.6508 122.137 56.5198 119.871C57.2686 117.904 56.3504 115.655 54.432 114.454C54.9731 112.112 55.8312 109.342 57.1866 106.368C57.8534 104.917 58.5584 103.595 59.2799 102.39C61.9743 103.128 64.7781 103.579 67.6748 103.704C68.1448 106.002 68.5274 108.573 68.7132 111.382C68.9919 115.562 68.7679 119.263 68.3744 122.318C66.1773 122.749 64.5321 124.506 64.5321 126.607C64.5321 129.034 66.7238 131 69.4401 131C72.1455 131 74.3371 129.034 74.3371 126.607C74.3371 124.515 72.703 122.761 70.5168 122.322C70.1506 119.198 69.9538 115.506 70.1615 111.382C70.3036 108.601 70.6152 106.033 71.0087 103.712C74.0365 103.595 76.9715 103.124 79.7752 102.337C80.0157 102.756 80.2508 103.192 80.4803 103.64C82.0052 106.594 82.825 109.363 83.2677 111.58C81.3165 112.729 80.3218 114.962 81.0268 116.953C81.8248 119.238 84.5466 120.343 87.0989 119.423C89.6458 118.501 91.0668 115.901 90.2634 113.616C89.5529 111.588 87.3284 110.491 85.0548 110.911C84.0109 109.093 82.7976 106.348 82.3768 102.833C82.3221 102.398 82.2839 101.971 82.262 101.551C85.3828 100.455 88.3232 98.9596 91.0286 97.1295C92.772 98.5683 94.6084 100.285 96.4339 102.325C99.2431 105.461 101.287 108.553 102.763 111.181C101.265 112.882 101.008 115.304 102.271 116.977C103.736 118.9 106.654 119.101 108.802 117.428C110.945 115.756 111.502 112.842 110.048 110.915C108.786 109.254 106.43 108.875 104.43 109.887C102.276 107.674 99.888 104.873 97.5871 101.43C96.1005 99.2051 94.8708 97.0452 93.8597 95.0172C94.9473 94.1266 95.9857 93.1793 96.9804 92.1756C98.5982 90.5312 100.079 88.7454 101.391 86.8349C103.812 87.5205 106.605 88.5242 109.567 90.0312C112.426 91.4789 114.809 93.0707 116.727 94.5539C116 96.7066 116.689 99.0361 118.492 100.076C120.569 101.281 123.34 100.322 124.685 97.9398C126.029 95.5537 125.428 92.6473 123.351 91.4418C121.537 90.3904 119.181 90.9912 117.727 92.7565C115.585 91.9295 112.983 90.6764 110.289 88.7537C107.49 86.7584 105.375 84.6179 103.845 82.7717C104.878 80.8053 105.752 78.7374 106.452 76.5847C107.611 76.6251 108.84 76.7299 110.108 76.9233C113.382 77.4232 116.109 78.3621 118.208 79.2971C118.028 81.5951 119.307 83.699 121.334 84.2272C123.652 84.8318 126.078 83.1669 126.756 80.507C127.428 77.8467 126.1 75.2024 123.777 74.5977C121.744 74.0651 119.618 75.291 118.673 77.4066C116.448 77.2215 113.59 76.7254 110.469 75.5006C109.289 75.0328 108.195 74.5129 107.201 73.9686C107.698 71.9739 108.048 69.9215 108.228 67.8176C110.245 67.6524 112.387 67.5477 114.645 67.5432C118.624 67.5316 122.242 67.8215 125.417 68.2488C125.8 70.4619 127.478 72.1468 129.527 72.2116C131.921 72.2798 133.927 70.1111 133.998 67.3664C134.074 64.6218 132.2 62.34 129.811 62.2713Z" fill="#128E5A"/>
</g>
<defs>
<filter id="filter0_d" x="0" y="147" width="323" height="332" filterUnits="userSpaceOnUse" color-interpolation-filters="sRGB">
<feFlood flood-opacity="0" result="BackgroundImageFix"/>
<feColorMatrix in="SourceAlpha" type="matrix" values="0 0 0 0 0 0 0 0 0 0 0 0 0 0 0 0 0 0 127 0"/>
<feOffset dy="4"/>
<feGaussianBlur stdDeviation="2"/>
<feColorMatrix type="matrix" values="0 0 0 0 0 0 0 0 0 0 0 0 0 0 0 0 0 0 0.07 0"/>
<feBlend mode="normal" in2="BackgroundImageFix" result="effect1_dropShadow"/>
<feBlend mode="normal" in="SourceGraphic" in2="effect1_dropShadow" result="shape"/>
</filter>
<filter id="filter1_d" x="2" y="0" width="136" height="139" filterUnits="userSpaceOnUse" color-interpolation-filters="sRGB">
<feFlood flood-opacity="0" result="BackgroundImageFix"/>
<feColorMatrix in="SourceAlpha" type="matrix" values="0 0 0 0 0 0 0 0 0 0 0 0 0 0 0 0 0 0 127 0"/>
<feOffset dy="4"/>
<feGaussianBlur stdDeviation="2"/>
<feColorMatrix type="matrix" values="0 0 0 0 0 0 0 0 0 0 0 0 0 0 0 0 0 0 0.07 0"/>
<feBlend mode="normal" in2="BackgroundImageFix" result="effect1_dropShadow"/>
<feBlend mode="normal" in="SourceGraphic" in2="effect1_dropShadow" result="shape"/>
</filter>
</defs>
</svg>
