<svg width="288" height="298" viewBox="0 0 288 298" fill="none" xmlns="http://www.w3.org/2000/svg">
<g filter="url(#filter0_d)">
<path d="M272.94 140.296C268.493 140.164 264.661 143.653 263.573 148.448C256.689 148.994 248.824 149.18 240.19 148.624C235.388 148.306 230.822 147.793 226.553 147.158C226.576 146.319 226.588 145.471 226.588 144.624C226.588 140.5 226.292 136.447 225.748 132.481C227.925 130.776 230.645 128.984 233.945 127.448C239.657 124.763 245.004 123.81 249.131 123.536C251.154 128.242 255.802 130.98 260.249 129.788C265.264 128.446 268.138 122.643 266.648 116.825C265.169 111.005 259.918 107.367 254.903 108.708C250.338 109.936 247.546 114.864 248.209 120.136C244.601 122.238 239.232 124.516 232.585 124.683C229.308 124.772 226.434 124.321 224.104 123.74C222.626 117.583 220.509 111.685 217.8 106.122C220.662 103.472 224.045 100.664 228.007 97.9524C233.744 94.0145 239.279 91.1976 244.14 89.1746C247.31 92.9728 252.36 94.2356 256.263 91.9225C260.746 89.2717 262 82.8871 259.078 77.6767C256.157 72.4675 250.137 70.4008 245.654 73.0588C241.763 75.3635 240.296 80.4852 241.905 85.2014C237.73 88.5212 232.596 92.0268 226.434 95.1535C222.247 97.2906 218.238 98.9154 214.607 100.151C211.638 95.0564 208.173 90.305 204.27 85.9689C205.772 80.3881 208.303 73.8711 212.62 67.336C216.677 61.2258 221.171 56.7658 224.991 53.6306C229.202 56.3068 234.501 55.8916 237.517 52.3678C240.947 48.3765 240.166 41.9215 235.754 37.9484C231.366 33.9656 225.027 33.9728 221.609 37.9653C218.593 41.4891 218.829 46.9205 221.963 50.8839C219.492 55.0706 215.754 60.2629 210.266 65.2086C204.21 70.6655 198.131 73.9331 193.495 75.8759C188.22 71.734 182.471 68.2187 176.333 65.4381C177.22 62.9027 178.403 60.3515 179.952 57.8441C181.194 55.8563 182.531 54.1078 183.879 52.5803C188.551 54.5316 193.79 53.1279 196.144 49.0395C198.793 44.4738 196.854 38.2738 191.815 35.2017C186.777 32.1284 180.555 33.3377 177.906 37.9119C175.588 41.9311 176.806 47.2107 180.555 50.5135C179.775 52.6336 178.829 54.8327 177.693 57.0743C176.404 59.6533 175.008 62.0297 173.53 64.2275C172.903 63.9713 172.288 63.7248 171.661 63.4953C164.352 60.6867 156.557 58.9126 148.432 58.3115C147.095 54.6201 145.936 50.5293 145.12 46.0365C143.464 36.8688 143.772 28.8899 144.541 22.8975C149.319 21.9577 152.891 18.1085 152.891 13.4955C152.891 8.17948 148.148 3.86999 142.293 3.86999C136.427 3.86999 131.672 8.17948 131.672 13.4955C131.672 18.1875 135.374 22.0901 140.271 22.9425C141.335 28.8487 142.033 37.1153 140.401 46.6983C139.668 50.9167 138.591 54.7611 137.338 58.2412C129.543 58.6917 122.056 60.2349 114.983 62.7218C114.002 61.1165 113.115 59.4311 112.322 57.4434C110.761 53.5067 110.087 49.8178 109.815 46.7469C114.392 44.3002 116.746 39.1674 115.137 34.6273C113.363 29.6342 107.461 27.258 101.95 29.3222C96.4497 31.3865 93.4219 37.1068 95.2078 42.1011C96.7454 46.4093 101.346 48.7613 106.113 48C107.508 50.9397 108.845 54.3287 109.886 58.1792C110.454 60.2179 110.868 62.2118 111.187 64.1619C104.765 66.7738 98.7443 70.1798 93.2091 74.2561C90.2995 72.0935 87.3189 69.5836 84.3739 66.6426C77.5967 59.8707 73.0785 52.925 70.1098 47.3625C73.3978 43.6274 73.9774 38.2798 71.2216 34.5958C68.0637 30.3798 61.7359 29.9354 57.0877 33.6012C52.4513 37.2683 51.245 43.6566 54.3911 47.8713C57.1942 51.5955 62.4456 52.3702 66.8454 49.9708C71.127 53.9135 76.6978 60.1317 81.003 69.0712C82.9782 73.1596 84.3502 77.1351 85.3201 80.8423C84.433 81.6801 83.5341 82.5446 82.6707 83.4262C78.3536 87.874 74.486 92.7991 71.1743 98.1285C69.2227 97.5517 67.2003 96.8535 65.1305 95.9987C58.4006 93.2168 53.1846 89.67 49.3998 86.5797C51.0084 81.7736 49.4353 76.5886 45.4376 74.3398C40.9077 71.7838 34.9466 73.9889 32.1316 79.2649C29.3049 84.5385 30.7006 90.8867 35.2542 93.4415C39.24 95.6879 44.3258 94.2526 47.4128 90.2893C52.0019 91.9188 57.7264 94.5331 63.6283 98.8255C65.3906 100.108 66.9992 101.426 68.5013 102.752C63.8294 111.396 60.565 120.948 59.0156 131.09C54.9824 131.443 50.6299 131.613 45.9581 131.465C39.2873 131.255 33.267 130.452 28.0038 129.408C27.8855 124.104 24.4319 119.665 19.7482 119.16C14.5914 118.603 9.91954 123.004 9.30451 128.987C8.7013 134.969 12.3797 140.268 17.5246 140.822C22.1137 141.316 26.3006 137.882 27.6135 132.905C33.0069 133.017 39.0625 133.512 45.6268 134.672C50.1804 135.474 54.3792 136.498 58.2705 137.636C58.0812 139.939 57.9985 142.268 57.9985 144.624C57.9985 150.218 58.5071 155.688 59.5006 160.992C55.0298 164.027 48.8794 167.468 41.0377 169.884C34.166 172.003 27.9802 172.724 23.0481 172.88C21.274 168.164 16.8741 165.221 12.4151 166.104C7.34111 167.112 4.11222 172.716 5.22401 178.622C6.3358 184.53 11.3625 188.5 16.4365 187.492C20.8363 186.621 23.8288 182.314 23.8406 177.347C28.8909 175.662 34.8519 174.08 41.6291 173.05C49.4116 171.867 56.4017 171.697 62.2918 171.959C64.6455 179.279 67.9573 186.154 72.0378 192.448C70.1099 194.013 67.9691 195.558 65.5444 197.001C60.9198 199.767 56.4845 201.488 52.6287 202.6C50.0267 198.327 45.1538 196.321 40.9432 198.067C36.153 200.064 34.0359 206.201 36.2358 211.773C37.6196 215.27 40.3754 217.725 43.4269 218.564C45.2247 219.067 47.129 219.006 48.915 218.264C49.4354 218.043 49.9439 217.769 50.4052 217.442C53.9061 215.06 55.3964 210.12 53.918 205.408C57.5609 203.478 61.8188 201.567 66.7154 199.991C69.8733 198.981 72.8775 198.242 75.7043 197.693C78.2827 201.118 81.1213 204.331 84.161 207.296C84.4449 207.579 84.7405 207.862 85.0244 208.125C82.9664 212.841 79.8675 218.573 75.1956 224.383C70.6184 230.071 65.8637 234.211 61.8542 237.136C57.8447 234.211 52.5814 234.274 49.3525 237.55C45.6623 241.286 46.0171 247.785 50.1449 252.068C54.2491 256.341 60.5887 256.784 64.2671 253.048C67.4723 249.806 67.626 244.474 64.9057 240.332C68.0518 236.119 72.156 231.369 77.3956 226.679C83.0374 221.646 88.5963 217.919 93.4456 215.173C99.8561 219.853 106.941 223.641 114.499 226.353C114.203 229.275 113.694 232.427 112.855 235.74C111.033 242.955 108.313 248.739 105.841 252.996C100.98 251.997 96.1777 254.276 94.5336 258.639C92.6767 263.593 95.5981 269.368 101.062 271.54C106.515 273.712 112.452 271.452 114.333 266.489C115.953 262.179 113.966 257.252 109.815 254.619C110.986 249.489 112.843 243.421 115.776 236.904C117.219 233.727 118.745 230.829 120.306 228.19C126.137 229.806 132.204 230.795 138.473 231.069C139.49 236.103 140.318 241.736 140.72 247.891C141.323 257.048 140.839 265.156 139.987 271.849C135.232 272.794 131.672 276.644 131.672 281.246C131.672 286.562 136.415 290.87 142.293 290.87C148.148 290.87 152.891 286.562 152.891 281.246C152.891 276.662 149.354 272.82 144.623 271.857C143.831 265.013 143.405 256.925 143.854 247.891C144.162 241.797 144.836 236.172 145.688 231.086C152.24 230.829 158.592 229.797 164.659 228.074C165.18 228.992 165.688 229.947 166.185 230.928C169.485 237.4 171.259 243.468 172.217 248.323C167.995 250.841 165.842 255.733 167.368 260.096C169.094 265.102 174.985 267.522 180.508 265.508C186.02 263.486 189.095 257.79 187.356 252.783C185.819 248.342 181.005 245.939 176.084 246.858C173.825 242.875 171.2 236.861 170.289 229.161C170.171 228.207 170.088 227.272 170.041 226.353C176.794 223.951 183.157 220.675 189.012 216.665C192.785 219.817 196.759 223.579 200.709 228.048C206.789 234.918 211.212 241.692 214.406 247.449C211.165 251.176 210.609 256.483 213.341 260.148C216.511 264.36 222.827 264.802 227.475 261.136C232.111 257.473 233.318 251.088 230.172 246.867C227.44 243.228 222.342 242.398 218.013 244.615C213.353 239.766 208.184 233.63 203.205 226.088C199.988 221.212 197.327 216.481 195.139 212.038C197.492 210.086 199.74 208.011 201.892 205.812C205.393 202.209 208.598 198.297 211.437 194.111C216.677 195.613 222.72 197.812 229.131 201.114C235.317 204.286 240.474 207.773 244.625 211.022C243.052 215.739 244.542 220.842 248.445 223.12C252.94 225.761 258.936 223.659 261.846 218.44C264.756 213.213 263.454 206.845 258.96 204.204C255.033 201.901 249.936 203.217 246.79 207.085C242.153 205.273 236.523 202.527 230.692 198.315C224.636 193.944 220.059 189.254 216.748 185.21C218.983 180.901 220.875 176.371 222.389 171.655C224.897 171.743 227.558 171.973 230.302 172.397C237.387 173.492 243.289 175.549 247.83 177.597C247.44 182.632 250.208 187.241 254.596 188.398C259.611 189.723 264.862 186.075 266.329 180.248C267.783 174.42 264.909 168.626 259.883 167.302C255.483 166.135 250.882 168.821 248.836 173.455C244.022 173.05 237.836 171.963 231.082 169.28C228.528 168.255 226.162 167.116 224.01 165.923C225.086 161.553 225.843 157.057 226.233 152.447C230.598 152.086 235.234 151.856 240.119 151.846C248.729 151.821 256.559 152.456 263.431 153.392C264.259 158.241 267.89 161.932 272.325 162.074C277.506 162.223 281.846 157.472 282 151.459C282.166 145.446 278.109 140.447 272.94 140.296Z" fill="#128E5A" fill-opacity="0.74"/>
</g>
<defs>
<filter id="filter0_d" x="0.00488281" y="0.869995" width="287" height="297" filterUnits="userSpaceOnUse" color-interpolation-filters="sRGB">
<feFlood flood-opacity="0" result="BackgroundImageFix"/>
<feColorMatrix in="SourceAlpha" type="matrix" values="0 0 0 0 0 0 0 0 0 0 0 0 0 0 0 0 0 0 127 0"/>
<feOffset dy="2"/>
<feGaussianBlur stdDeviation="2.5"/>
<feColorMatrix type="matrix" values="0 0 0 0 0 0 0 0 0 0 0 0 0 0 0 0 0 0 0.1 0"/>
<feBlend mode="normal" in2="BackgroundImageFix" result="effect1_dropShadow"/>
<feBlend mode="normal" in="SourceGraphic" in2="effect1_dropShadow" result="shape"/>
</filter>
</defs>
</svg>
