<svg width="221" height="73" viewBox="0 0 221 73" fill="none" xmlns="http://www.w3.org/2000/svg">
<path d="M98.199 42.272C99.0057 42.272 99.761 42.1033 100.465 41.766C101.169 41.4287 101.792 40.9447 102.335 40.314L104.425 42.382C103.692 43.2473 102.753 43.9367 101.609 44.45C100.48 44.9633 99.3137 45.22 98.111 45.22C96.9524 45.22 95.867 45.0147 94.855 44.604C93.8577 44.1933 92.9924 43.636 92.259 42.932C91.5257 42.228 90.9464 41.392 90.521 40.424C90.1104 39.456 89.905 38.4147 89.905 37.3C89.905 36.1853 90.1177 35.144 90.543 34.176C90.9684 33.1933 91.5477 32.35 92.281 31.646C93.0144 30.942 93.8797 30.3847 94.877 29.974C95.889 29.5633 96.967 29.358 98.111 29.358C99.343 29.358 100.538 29.622 101.697 30.15C102.856 30.6633 103.794 31.36 104.513 32.24L102.357 34.374C101.814 33.6993 101.176 33.186 100.443 32.834C99.7097 32.4673 98.9324 32.284 98.111 32.284C97.4217 32.284 96.769 32.416 96.153 32.68C95.5517 32.9293 95.031 33.2813 94.591 33.736C94.151 34.176 93.8064 34.704 93.557 35.32C93.3077 35.9213 93.183 36.5813 93.183 37.3C93.183 38.004 93.3077 38.664 93.557 39.28C93.821 39.8813 94.173 40.402 94.613 40.842C95.0677 41.282 95.5957 41.634 96.197 41.898C96.813 42.1473 97.4804 42.272 98.199 42.272ZM121.568 37.3C121.568 38.4 121.356 39.4413 120.93 40.424C120.505 41.392 119.926 42.2353 119.192 42.954C118.474 43.658 117.616 44.2153 116.618 44.626C115.621 45.0367 114.55 45.242 113.406 45.242C112.277 45.242 111.214 45.0367 110.216 44.626C109.219 44.2153 108.354 43.658 107.62 42.954C106.902 42.2353 106.33 41.392 105.904 40.424C105.479 39.4413 105.266 38.4 105.266 37.3C105.266 36.2 105.479 35.166 105.904 34.198C106.33 33.2153 106.902 32.372 107.62 31.668C108.354 30.9493 109.219 30.3847 110.216 29.974C111.214 29.5633 112.277 29.358 113.406 29.358C114.55 29.358 115.621 29.5633 116.618 29.974C117.616 30.3847 118.474 30.9493 119.192 31.668C119.926 32.372 120.505 33.2153 120.93 34.198C121.356 35.166 121.568 36.2 121.568 37.3ZM118.29 37.3C118.29 36.5813 118.166 35.9213 117.916 35.32C117.667 34.704 117.322 34.176 116.882 33.736C116.457 33.2813 115.944 32.9293 115.342 32.68C114.741 32.416 114.096 32.284 113.406 32.284C112.717 32.284 112.072 32.416 111.47 32.68C110.884 32.9293 110.37 33.2813 109.93 33.736C109.505 34.176 109.168 34.704 108.918 35.32C108.669 35.9213 108.544 36.5813 108.544 37.3C108.544 38.004 108.669 38.664 108.918 39.28C109.168 39.896 109.505 40.4313 109.93 40.886C110.37 41.326 110.884 41.678 111.47 41.942C112.072 42.1913 112.717 42.316 113.406 42.316C114.096 42.316 114.741 42.1913 115.342 41.942C115.944 41.678 116.457 41.326 116.882 40.886C117.322 40.4313 117.667 39.896 117.916 39.28C118.166 38.664 118.29 38.004 118.29 37.3ZM127.671 45L121.423 29.6H124.877L129.585 41.766L134.403 29.6H137.703L131.367 45H127.671ZM139.011 45V29.6H142.201V45H139.011ZM145.005 45V29.6H150.923C152.067 29.6 153.138 29.798 154.135 30.194C155.132 30.59 155.99 31.1327 156.709 31.822C157.442 32.5113 158.014 33.3327 158.425 34.286C158.85 35.2393 159.063 36.2587 159.063 37.344C159.063 38.4147 158.85 39.4193 158.425 40.358C158.014 41.2967 157.442 42.1107 156.709 42.8C155.99 43.4747 155.132 44.01 154.135 44.406C153.138 44.802 152.067 45 150.923 45H145.005ZM150.901 32.438H148.195V42.162H150.901C151.576 42.162 152.206 42.0373 152.793 41.788C153.394 41.5387 153.915 41.2013 154.355 40.776C154.795 40.336 155.14 39.8227 155.389 39.236C155.638 38.6493 155.763 38.0187 155.763 37.344C155.763 36.6547 155.638 36.0093 155.389 35.408C155.14 34.8067 154.795 34.286 154.355 33.846C153.915 33.406 153.394 33.0613 152.793 32.812C152.206 32.5627 151.576 32.438 150.901 32.438ZM165.189 37.454H173.461V40.006H165.189V37.454ZM185.3 29.6V45H182.286V32.658L179.272 33.89V31.272L183.386 29.6H185.3ZM192.948 29.336C193.96 29.336 194.884 29.5267 195.72 29.908C196.556 30.2747 197.268 30.7953 197.854 31.47C198.456 32.13 198.918 32.9293 199.24 33.868C199.578 34.8067 199.746 35.8407 199.746 36.97C199.746 38.202 199.563 39.3313 199.196 40.358C198.83 41.37 198.316 42.2353 197.656 42.954C196.996 43.6727 196.197 44.23 195.258 44.626C194.32 45.022 193.286 45.22 192.156 45.22C191.32 45.22 190.492 45.088 189.67 44.824C188.849 44.5453 188.16 44.1787 187.602 43.724L189.318 41.568C189.773 41.92 190.25 42.1767 190.748 42.338C191.247 42.4993 191.79 42.58 192.376 42.58C193.696 42.58 194.73 42.1327 195.478 41.238C196.241 40.3287 196.659 39.0453 196.732 37.388C196.234 37.9453 195.618 38.3853 194.884 38.708C194.151 39.016 193.374 39.17 192.552 39.17C191.775 39.17 191.056 39.0527 190.396 38.818C189.736 38.5833 189.164 38.2607 188.68 37.85C188.211 37.4247 187.844 36.926 187.58 36.354C187.316 35.7673 187.184 35.1293 187.184 34.44C187.184 33.7067 187.331 33.032 187.624 32.416C187.918 31.7853 188.314 31.2427 188.812 30.788C189.326 30.3333 189.934 29.9813 190.638 29.732C191.357 29.468 192.127 29.336 192.948 29.336ZM193.036 36.794C193.726 36.794 194.364 36.6473 194.95 36.354C195.552 36.0607 196.087 35.6427 196.556 35.1C196.322 34.132 195.896 33.3547 195.28 32.768C194.664 32.1813 193.931 31.888 193.08 31.888C192.244 31.888 191.54 32.1227 190.968 32.592C190.411 33.0613 190.132 33.6553 190.132 34.374C190.132 35.0927 190.404 35.6793 190.946 36.134C191.489 36.574 192.186 36.794 193.036 36.794Z" fill="#035755"/>
<path d="M51.9858 36.4547C51.9858 37.6699 52.971 38.6552 54.1864 38.6552H59.191C61.7387 38.6552 64.2557 39.2392 66.5303 40.3868C67.2084 40.729 67.9873 40.9006 68.8107 40.8456C70.9923 40.7 72.7609 38.9256 72.9002 36.7436C73.0637 34.1819 71.0349 32.0537 68.5084 32.0537C67.824 32.0537 67.1762 32.2099 66.5988 32.4887C64.281 33.6077 61.7639 34.2543 59.1901 34.2543H54.1864C52.9711 34.2541 51.9858 35.2394 51.9858 36.4547Z" fill="#FC312F"/>
<path d="M22.1675 50.7418C21.457 50.0314 20.3051 50.0314 19.5947 50.7418L16.6689 53.6676C15.1795 55.157 13.3667 56.287 11.3661 56.9458C10.7696 57.1422 10.2139 57.4972 9.76478 58.0107C8.57459 59.3712 8.57786 61.4425 9.77205 62.7996C11.174 64.3928 13.6042 64.4509 15.0812 62.9739C15.4812 62.5739 15.7686 62.1038 15.9433 61.6033C16.6441 59.5941 17.7377 57.7447 19.2424 56.2401L22.1676 53.3149C22.8779 52.6042 22.8779 51.4523 22.1675 50.7418Z" fill="#FC312F"/>
<path d="M48.5569 24.3537C49.3004 25.0972 50.5057 25.0972 51.2492 24.3537L54.3108 21.2922C55.8694 19.7336 57.7663 18.5512 59.8598 17.8617C60.4839 17.6561 61.0655 17.2847 61.5354 16.7473C62.7809 15.3235 62.7775 13.1562 61.5277 11.7361C60.0607 10.069 57.5176 10.0082 55.9721 11.5537C55.5534 11.9724 55.2528 12.4642 55.0699 12.988C54.3366 15.0904 53.1922 17.0257 51.6178 18.6002L48.5568 21.6613C47.8134 22.4049 47.8134 23.6102 48.5569 24.3537Z" fill="#FC312F"/>
<path d="M36.4538 51.9863C35.2386 51.9863 34.2533 52.9715 34.2533 54.1869V59.1915C34.2533 61.7392 33.6693 64.2561 32.5217 66.5307C32.1795 67.2088 32.0079 67.9878 32.0628 68.8111C32.2085 70.9928 33.9828 72.7614 36.1649 72.9007C38.7266 73.0641 40.8548 71.0353 40.8548 68.5088C40.8548 67.8244 40.6985 67.1767 40.4197 66.5992C39.3007 64.2815 38.6542 61.7644 38.6542 59.1906V54.1869C38.6544 52.9716 37.6691 51.9863 36.4538 51.9863Z" fill="#FFA2A1"/>
<path d="M40.4225 66.5994C39.3035 64.2816 38.6569 61.7645 38.6569 59.1908V54.1869C38.6569 52.9716 37.6718 51.9863 36.4564 51.9863C35.241 51.9863 34.2559 52.9715 34.2559 54.1869V59.1908C34.2559 61.7645 34.9024 64.2815 36.0214 66.5994C36.3002 67.1768 36.4564 67.8246 36.4564 68.509C36.4564 70.1367 35.5724 71.5567 34.259 72.3181C34.8287 72.6495 35.4777 72.8568 36.1676 72.9008C38.7293 73.0643 40.8575 71.0355 40.8575 68.509C40.8575 67.8246 40.7013 67.1768 40.4225 66.5994Z" fill="#FC312F"/>
<path d="M20.0328 27.3669C24.0028 27.3669 27.2211 24.1486 27.2211 20.1786C27.2211 16.2086 24.0028 12.9902 20.0328 12.9902C16.0628 12.9902 12.8445 16.2086 12.8445 20.1786C12.8445 24.1486 16.0628 27.3669 20.0328 27.3669Z" fill="#FF807E"/>
<path d="M20.0304 12.9902C19.2627 12.9902 18.5236 13.1118 17.8298 13.3347C20.7232 14.2643 22.8176 16.9764 22.8176 20.1786C22.8176 23.3808 20.7232 26.0928 17.8298 27.0224C18.5235 27.2453 19.2625 27.3669 20.0304 27.3669C24.0004 27.3669 27.2187 24.1486 27.2187 20.1786C27.2187 16.2085 24.0003 12.9902 20.0304 12.9902Z" fill="#FC312F"/>
<path d="M36.4554 59.927C49.4187 59.927 59.9275 49.4182 59.9275 36.4549C59.9275 23.4917 49.4187 12.9829 36.4554 12.9829C23.4922 12.9829 12.9834 23.4917 12.9834 36.4549C12.9834 49.4182 23.4922 59.927 36.4554 59.927Z" fill="#FFBFBE"/>
<path d="M36.4564 12.9829C35.7142 12.9829 34.9805 13.0189 34.2559 13.0864C46.187 14.196 55.5275 24.234 55.5275 36.4549C55.5275 48.6759 46.1872 58.7138 34.256 59.8234C34.9805 59.8908 35.7143 59.927 36.4565 59.927C49.4199 59.927 59.9286 49.4183 59.9286 36.4549C59.9286 23.4916 49.4197 12.9829 36.4564 12.9829Z" fill="#FFA2A2"/>
<path d="M45.2549 33.1991C47.888 33.1991 50.0226 31.0645 50.0226 28.4313C50.0226 25.7982 47.888 23.6636 45.2549 23.6636C42.6217 23.6636 40.4871 25.7982 40.4871 28.4313C40.4871 31.0645 42.6217 33.1991 45.2549 33.1991Z" fill="#FFA2A1"/>
<path d="M45.2582 23.6636C44.4641 23.6636 43.7161 23.8588 43.0576 24.2021C44.5829 24.9975 45.6249 26.5922 45.6249 28.4313C45.6249 30.2705 44.5829 31.8654 43.0576 32.6606C43.7161 33.0039 44.4641 33.1991 45.2582 33.1991C47.8913 33.1991 50.026 31.0645 50.026 28.4313C50.026 25.7982 47.8913 23.6636 45.2582 23.6636Z" fill="#FF807E"/>
<path d="M28.0629 48.8518C29.8453 48.8518 31.2903 47.4068 31.2903 45.6244C31.2903 43.8419 29.8453 42.397 28.0629 42.397C26.2804 42.397 24.8354 43.8419 24.8354 45.6244C24.8354 47.4068 26.2804 48.8518 28.0629 48.8518Z" fill="#FF807E"/>
<path d="M52.4232 58.2638C54.8537 58.2638 56.8241 56.2934 56.8241 53.8629C56.8241 51.4323 54.8537 49.4619 52.4232 49.4619C49.9926 49.4619 48.0222 51.4323 48.0222 53.8629C48.0222 56.2934 49.9926 58.2638 52.4232 58.2638Z" fill="#FC312F"/>
<path d="M52.4237 49.4619C51.6218 49.4619 50.8707 49.6775 50.2231 50.0522C51.5382 50.8132 52.4237 52.2342 52.4237 53.863C52.4237 55.4918 51.5382 56.9127 50.2231 57.6738C50.8707 58.0485 51.6218 58.2641 52.4237 58.2641C54.8544 58.2641 56.8247 56.2937 56.8247 53.8631C56.8247 51.4326 54.8544 49.4619 52.4237 49.4619Z" fill="#FF807E"/>
<path d="M20.9236 36.4547C20.9236 37.6699 19.9384 38.6552 18.723 38.6552H13.7184C11.1707 38.6552 8.65376 39.2392 6.37917 40.3868C5.70105 40.729 4.92211 40.9006 4.09874 40.8456C1.91714 40.7 0.148502 38.9256 0.00923265 36.7436C-0.154245 34.1819 1.87456 32.0537 4.40106 32.0537C5.08545 32.0537 5.73323 32.2099 6.31068 32.4887C8.62842 33.6077 11.1455 34.2543 13.7193 34.2543H18.7232C19.9383 34.2541 20.9236 35.2394 20.9236 36.4547Z" fill="#FC312F"/>
<path d="M36.4537 20.9236C37.6689 20.9236 38.6542 19.9384 38.6542 18.723V13.7184C38.6542 11.1707 39.2382 8.65376 40.3858 6.37917C40.728 5.70105 40.8996 4.92211 40.8447 4.09874C40.699 1.91714 38.9246 0.148502 36.7426 0.00923265C34.1809 -0.154245 32.0527 1.87456 32.0527 4.40106C32.0527 5.08545 32.2089 5.73323 32.4878 6.31068C33.6068 8.62842 34.2533 11.1455 34.2533 13.7193V18.7232C34.2531 19.9383 35.2384 20.9236 36.4537 20.9236Z" fill="#FFA2A1"/>
<path d="M40.8462 4.09873C40.7006 1.91713 38.9262 0.14849 36.7442 0.00922096C35.8328 -0.0490216 34.9771 0.171417 34.2517 0.591931C35.4841 1.30864 36.3455 2.60692 36.4451 4.09873C36.5001 4.9221 36.3285 5.70104 35.9863 6.37916C34.8387 8.65375 34.2547 11.1707 34.2547 13.7184V18.723C34.2547 19.9383 35.2398 20.9236 36.4552 20.9236C37.6707 20.9236 38.6558 19.9384 38.6558 18.723V13.7184C38.6558 11.1707 39.2398 8.65375 40.3874 6.37916C40.7296 5.70104 40.9013 4.9221 40.8462 4.09873Z" fill="#FC312F"/>
<path d="M68.5126 32.0566C67.8287 32.0566 67.1813 32.2127 66.6042 32.4914C66.5021 32.5407 66.399 32.5879 66.2961 32.6354C67.6977 33.4377 68.6154 34.9888 68.5034 36.7438C68.4075 38.2447 67.5403 39.5524 66.2981 40.2696C66.3773 40.3079 66.4569 40.3453 66.5355 40.3849C67.2134 40.7268 67.9917 40.8984 68.8147 40.8434C70.995 40.6978 72.7626 38.9246 72.9017 36.7438C73.0652 34.1836 71.0376 32.0566 68.5126 32.0566Z" fill="#FF807E"/>
</svg>
